<?xml version="1.0" encoding="UTF-8" standalone="no"?>
<!DOCTYPE svg PUBLIC "-//W3C//DTD SVG 1.1//EN" "http://www.w3.org/Graphics/SVG/1.1/DTD/svg11.dtd">
<svg width="100%" height="100%" viewBox="0 0 28 28" version="1.1" xmlns="http://www.w3.org/2000/svg" xmlns:xlink="http://www.w3.org/1999/xlink" xml:space="preserve" xmlns:serif="http://www.serif.com/" style="fill-rule:evenodd;clip-rule:evenodd;stroke-linejoin:round;stroke-miterlimit:2;">
    <g transform="matrix(1,0,0,1,-88.4407,-242.4)">
        <g transform="matrix(0.631906,4.6733e-32,7.78884e-33,0.631906,-31.1158,200.694)">
            <path d="M211.3,68C222.4,68 231.4,77 231.4,88.1C231.4,99.2 222.4,108.2 211.3,108.2C200.2,108.2 191.2,99.2 191.2,88.1C191.1,77 200.2,68 211.3,68M211.3,66C199.1,66 189.2,75.9 189.2,88.1C189.2,100.3 199.1,110.2 211.3,110.2C223.5,110.2 233.4,100.3 233.4,88.1C233.4,75.9 223.5,66 211.3,66Z" style="fill:rgb(3,3,3);fill-rule:nonzero;"/>
        </g>
    </g>
</svg>
