<?xml version="1.0" encoding="UTF-8" standalone="no"?>
<!DOCTYPE svg PUBLIC "-//W3C//DTD SVG 1.1//EN" "http://www.w3.org/Graphics/SVG/1.1/DTD/svg11.dtd">
<svg width="100%" height="100%" viewBox="0 0 31 366" version="1.1" xmlns="http://www.w3.org/2000/svg" xmlns:xlink="http://www.w3.org/1999/xlink" xml:space="preserve" xmlns:serif="http://www.serif.com/" style="fill-rule:evenodd;clip-rule:evenodd;stroke-linejoin:round;stroke-miterlimit:2;">
    <g transform="matrix(1,0,0,1,-11.6122,-239.621)">
        <g transform="matrix(2.36422,0,0,2.36422,-157.536,-6.49234)">
            <path d="M77.231,221.006C75.961,221.006 74.931,222.036 74.931,223.306C74.931,224.576 75.961,225.606 77.231,225.606C78.502,225.606 79.53,224.576 79.53,223.306C79.53,222.036 78.502,221.006 77.231,221.006ZM78.504,225.608C78.127,225.818 77.694,225.938 77.231,225.938C76.77,225.938 76.335,225.818 75.957,225.608C74.658,226.118 73.737,227.38 73.737,228.86L73.737,229.009C74.669,229.831 75.892,230.328 77.231,230.328C78.571,230.328 79.792,229.831 80.726,229.007L80.726,228.86C80.726,227.38 79.803,226.118 78.504,225.608Z" style="fill:rgb(86,88,90);fill-rule:nonzero;"/>
        </g>
        <g transform="matrix(2.36422,0,0,2.36422,-157.536,-6.49234)">
            <path d="M81.788,108.357L81.788,114.143L78.65,114.143L78.65,110.142L75.813,110.142L75.813,114.143L72.675,114.143L72.675,108.357L77.233,104.099L81.788,108.357Z" style="fill:rgb(89,89,89);fill-rule:nonzero;"/>
        </g>
        <g transform="matrix(2.36422,0,0,2.36422,-157.536,-6.49234)">
            <rect x="79.099" y="135.253" width="1.558" height="6.009" style="fill:rgb(86,88,90);fill-rule:nonzero;"/>
        </g>
        <g transform="matrix(2.36422,0,0,2.36422,-157.536,-6.49234)">
            <rect x="73.806" y="137.794" width="1.558" height="3.468" style="fill:rgb(86,88,90);fill-rule:nonzero;"/>
        </g>
        <g transform="matrix(2.36422,0,0,2.36422,-157.536,-6.49234)">
            <rect x="76.453" y="136.926" width="1.558" height="4.336" style="fill:rgb(86,88,90);fill-rule:nonzero;"/>
        </g>
        <g transform="matrix(2.36422,0,0,2.36422,-157.536,-6.49234)">
            <path d="M82.439,193.233L72.024,193.233L77.231,196.285L82.439,193.233Z" style="fill:rgb(86,88,90);fill-rule:nonzero;"/>
        </g>
        <g transform="matrix(2.36422,0,0,2.36422,-157.536,-6.49234)">
            <path d="M77.231,196.775L71.854,193.624L71.854,199.828L82.609,199.828L82.609,193.624L77.231,196.775Z" style="fill:rgb(86,88,90);fill-rule:nonzero;"/>
        </g>
        <g transform="matrix(2.36422,0,0,2.36422,-157.536,-6.49234)">
            <path d="M72.89,163.269C72.291,163.269 71.804,163.755 71.804,164.354L71.804,168.696C71.804,169.294 72.291,169.781 72.89,169.781L78.382,169.781L80.113,171.52L80.113,169.781L81.573,169.781C82.172,169.781 82.659,169.294 82.659,168.696L82.659,164.354C82.659,163.755 82.172,163.269 81.573,163.269L72.89,163.269Z" style="fill:rgb(86,88,90);fill-rule:nonzero;"/>
        </g>
        <g transform="matrix(2.36422,0,0,2.36422,-157.536,-6.49234)">
            <path d="M77.231,255.418C76.983,256.297 76.182,256.87 75.313,256.87C75.133,256.87 74.95,256.847 74.768,256.794C73.889,256.546 73.315,255.745 73.315,254.876C73.315,254.695 73.34,254.514 73.392,254.331C73.64,253.452 74.44,252.879 75.31,252.878C75.49,252.879 75.672,252.903 75.855,252.954C76.733,253.202 77.307,254.004 77.307,254.873C77.307,255.053 77.283,255.235 77.231,255.418ZM74.494,257.766L74.517,257.684L74.494,257.766ZM78.604,254.677C78.574,254.177 78.43,253.696 78.192,253.269L78.6,253.041C78.396,252.674 78.129,252.341 77.812,252.058L77.501,252.407C77.141,252.089 76.708,251.841 76.215,251.701L76.342,251.253L76.336,251.251C75.995,251.154 75.649,251.108 75.31,251.108L75.089,251.115L75.116,251.581C74.616,251.611 74.136,251.754 73.708,251.992L73.481,251.584C73.113,251.788 72.78,252.054 72.497,252.372L72.846,252.684C72.527,253.042 72.279,253.476 72.139,253.968L71.691,253.841L71.689,253.85C71.592,254.191 71.545,254.536 71.545,254.876L71.551,255.094L72.019,255.066C72.047,255.566 72.19,256.047 72.428,256.477L72.02,256.702C72.224,257.069 72.489,257.404 72.807,257.688L73.118,257.337C73.477,257.658 73.91,257.905 74.403,258.046L74.274,258.494L74.286,258.498C74.628,258.594 74.974,258.641 75.313,258.641L75.54,258.634L75.512,258.167C76.011,258.137 76.491,257.992 76.919,257.753L77.147,258.162C77.514,257.957 77.847,257.69 78.13,257.373L77.78,257.063C78.099,256.702 78.346,256.27 78.486,255.775L78.934,255.902L78.934,255.899C79.031,255.558 79.078,255.212 79.077,254.873L79.071,254.648L78.604,254.677Z" style="fill:rgb(86,88,90);fill-rule:nonzero;"/>
        </g>
        <g transform="matrix(2.36422,0,0,2.36422,-157.536,-6.49234)">
            <path d="M84.537,251.652" style="fill:rgb(86,88,90);fill-rule:nonzero;"/>
        </g>
        <g transform="matrix(2.36422,0,0,2.36422,-157.536,-6.49234)">
            <path d="M81.731,255.341C81.59,255.341 81.445,255.321 81.301,255.28C80.606,255.085 80.152,254.45 80.151,253.763C80.151,253.62 80.171,253.477 80.211,253.332C80.408,252.637 81.042,252.183 81.73,252.183C81.872,252.183 82.016,252.201 82.161,252.242C82.856,252.438 83.31,253.073 83.31,253.761C83.31,253.902 83.291,254.047 83.25,254.191C83.054,254.887 82.419,255.341 81.731,255.341ZM84.335,253.255L84.024,253.315C83.977,253.074 83.893,252.843 83.775,252.63L84.051,252.477C83.852,252.115 83.568,251.801 83.217,251.563L83.041,251.824C82.843,251.69 82.622,251.584 82.38,251.514L82.467,251.213L82.453,251.209C82.212,251.141 81.969,251.108 81.73,251.108C81.561,251.108 81.394,251.124 81.231,251.156L81.291,251.467C81.049,251.513 80.818,251.597 80.604,251.714L80.452,251.438C80.09,251.636 79.775,251.919 79.537,252.269L79.797,252.445C79.663,252.644 79.556,252.865 79.485,253.106L79.184,253.019L79.178,253.039C79.11,253.28 79.077,253.523 79.077,253.763C79.077,253.929 79.093,254.094 79.124,254.254L79.434,254.195C79.48,254.438 79.563,254.669 79.68,254.883L79.403,255.034C79.601,255.396 79.883,255.712 80.232,255.951L80.409,255.692C80.607,255.827 80.828,255.934 81.069,256.005L80.981,256.306L81.008,256.314C81.249,256.382 81.493,256.416 81.732,256.416C81.905,256.416 82.077,256.397 82.244,256.365L82.183,256.054C82.424,256.007 82.655,255.921 82.868,255.803L83.022,256.08C83.382,255.878 83.696,255.594 83.933,255.242L83.671,255.066C83.804,254.868 83.911,254.647 83.981,254.405L84.281,254.49L84.283,254.483C84.351,254.243 84.384,254 84.384,253.761C84.384,253.589 84.367,253.42 84.335,253.255Z" style="fill:rgb(86,88,90);fill-rule:nonzero;"/>
        </g>
    </g>
</svg>
