<?xml version="1.0" encoding="UTF-8" standalone="no"?>
<!DOCTYPE svg PUBLIC "-//W3C//DTD SVG 1.1//EN" "http://www.w3.org/Graphics/SVG/1.1/DTD/svg11.dtd">
<svg width="100%" height="100%" viewBox="0 0 31 31" version="1.1" xmlns="http://www.w3.org/2000/svg" xmlns:xlink="http://www.w3.org/1999/xlink" xml:space="preserve" xmlns:serif="http://www.serif.com/" style="fill-rule:evenodd;clip-rule:evenodd;stroke-linejoin:round;stroke-miterlimit:2;">
    <g transform="matrix(1,0,0,1,-48344.2,-316.839)">
        <g transform="matrix(1,0,0,1,42895,3.2001)">
            <g transform="matrix(1.11538,0,0,1.12673,5201.56,-475.376)">
                <path d="M249,713.636C249,706.26 242.951,700.272 235.5,700.272C228.049,700.272 222,706.26 222,713.636C222,721.012 228.049,727 235.5,727C242.951,727 249,721.012 249,713.636Z" style="fill:rgb(255,59,48);"/>
            </g>
            <g id="delete" transform="matrix(0.0304988,0,0,0.0304988,5464.23,328.696)">
                <g transform="matrix(1,0,0,1,-256,-256)">
                    <path d="M213.371,30.906L298.941,30.906L298.941,45.305L329.844,45.305L329.844,28.891C329.848,12.961 316.895,0 300.973,0L211.34,0C195.418,0 182.465,12.961 182.465,28.891L182.465,45.305L213.371,45.305L213.371,30.906Z" style="fill:white;fill-rule:nonzero;"/>
                    <path d="M401.211,167.75L111.102,167.75C103.152,167.75 96.895,174.531 97.535,182.457L121.789,482.363C123.141,499.105 137.105,512 153.883,512L358.426,512C375.203,512 389.168,499.105 390.52,482.359L414.773,182.457C415.418,174.531 409.16,167.75 401.211,167.75ZM181.348,480.012C181.023,480.031 180.699,480.043 180.379,480.043C172.277,480.043 165.477,473.734 164.973,465.539L149.773,219.332C149.25,210.813 155.73,203.48 164.246,202.957C172.734,202.441 180.098,208.906 180.621,217.43L195.816,463.637C196.344,472.156 189.863,479.484 181.348,480.012ZM271.781,464.59C271.781,473.121 264.863,480.039 256.328,480.039C247.793,480.039 240.875,473.121 240.875,464.59L240.875,218.379C240.875,209.844 247.793,202.926 256.328,202.926C264.859,202.926 271.781,209.844 271.781,218.379L271.781,464.59ZM362.539,219.289L348.027,465.496C347.547,473.707 340.734,480.039 332.617,480.039C332.313,480.039 332.004,480.031 331.695,480.016C323.176,479.512 316.676,472.199 317.18,463.68L331.688,217.469C332.188,208.949 339.477,202.449 348.02,202.953C356.539,203.453 363.039,210.77 362.539,219.289Z" style="fill:white;fill-rule:nonzero;"/>
                    <path d="M454.648,120.063L444.5,89.641C441.824,81.621 434.316,76.211 425.859,76.211L86.449,76.211C77.996,76.211 70.484,81.621 67.813,89.641L57.664,120.063C55.707,125.93 58.254,131.914 63.008,134.898C64.945,136.113 67.238,136.844 69.758,136.844L442.555,136.844C445.074,136.844 447.371,136.113 449.305,134.895C454.059,131.91 456.605,125.926 454.648,120.063Z" style="fill:white;fill-rule:nonzero;"/>
                </g>
            </g>
        </g>
    </g>
</svg>
