<?xml version="1.0" encoding="UTF-8"?>
<!DOCTYPE svg PUBLIC "-//W3C//DTD SVG 1.1//EN" "http://www.w3.org/Graphics/SVG/1.1/DTD/svg11.dtd">
<!-- Creator: CorelDRAW 2018 (64-Bit Evaluation Version) -->
<svg xmlns="http://www.w3.org/2000/svg" xml:space="preserve" width="11.6929in" height="8.26772in" version="1.1" style="shape-rendering:geometricPrecision; text-rendering:geometricPrecision; image-rendering:optimizeQuality; fill-rule:evenodd; clip-rule:evenodd"
viewBox="0 0 11692.91 8267.72"
 xmlns:xlink="http://www.w3.org/1999/xlink">
 <defs>
  <style type="text/css">
   <![CDATA[
    .fil0 {fill:black}
   ]]>
  </style>
 </defs>
 <g id="Layer_x0020_1">
  <metadata id="CorelCorpID_0Corel-Layer"/>
  <path class="fil0" d="M1751.55 4180.12l611.58 381.52c401.72,250.02 667.13,451.6 1025.98,723.69 49.74,37.72 91.43,68.72 140.41,109.75 342.78,287.13 474.59,395.15 794.12,705.91 210.49,204.71 516.04,554.03 708.34,791.86 298.01,368.58 561.62,755.08 823.01,1186.35 56.15,-43.72 148.59,-239.15 192.64,-311.39 65.74,-107.82 123.96,-203.32 191.61,-308.5 128.17,-199.28 265.3,-406.64 408.78,-591.22 97.49,-125.41 353.21,-460.52 447.83,-552.14l237.47 -262.54c247.67,-262.24 390.11,-386.87 651.02,-613.22 49.35,-42.81 82.39,-76.61 134.3,-115.19 97.12,-72.17 179.05,-145.37 280.14,-219.98 337.63,-249.17 842.44,-595.81 1212.23,-787.69 95.18,-49.39 247.02,-122.16 330.34,-182.47 -2.37,-2.17 -6.41,-8.39 -7.58,-5.95l-338.24 -147.03c-621.74,-267.62 -1199.26,-624.68 -1713.36,-1050.71 -52.76,-43.72 -84.92,-66.04 -135.04,-114.65 -372.38,-361.11 -641.23,-602 -964.45,-1049.5 -262.67,-363.66 -579.14,-837.52 -777.9,-1236.3 -48.84,-97.99 -142.97,-249.7 -172.58,-342.2 -38.99,29.9 -80.15,104.28 -107.82,145.12 -333.02,491.61 -573.43,841.51 -942.99,1320.86 -824.57,1069.54 -1857.09,1861.87 -3029.86,2525.63z"/>
 </g>
</svg>
