<svg xmlns="http://www.w3.org/2000/svg" viewBox="0 0 273.4 283.46"><defs><style>.cls-1{fill:#60bd7c;}.cls-2{fill:#fff;}</style></defs><g id="Layer_2" data-name="Layer 2"><g id="Layer_1-2" data-name="Layer 1"><ellipse class="cls-1" cx="136.7" cy="141.73" rx="136.7" ry="141.73"/><path class="cls-2" d="M215.31,105.51l-26-26a3.06,3.06,0,0,0-2.16-.89H175.65V77.08a3.07,3.07,0,0,0-.9-2.16l-26-26a3,3,0,0,0-2.16-.9H66.36a9.17,9.17,0,0,0-9.16,9.16V195.65a9.17,9.17,0,0,0,9.16,9.16H97.75v21.43a9.17,9.17,0,0,0,9.16,9.16H207a9.17,9.17,0,0,0,9.16-9.16V107.67A3.06,3.06,0,0,0,215.31,105.51ZM67.38,58.24h74.23V78.92a3.79,3.79,0,0,0,3.78,3.79h20.08V194.63H67.38Zm40.55,167V204.81h58.56a9.17,9.17,0,0,0,9.16-9.16V88.83h6.52v20.68a3.78,3.78,0,0,0,3.78,3.78H206V225.22Z"/><path class="cls-2" d="M189.32,196.4h-7.13a2.48,2.48,0,0,0-2.47,2.47v18.2a2.48,2.48,0,0,0,2.47,2.47h7.13a11.57,11.57,0,1,0,0-23.14Zm0,17.93h-4.39V201.61h4.39a6.36,6.36,0,1,1,0,12.72Z"/></g></g></svg>